<?xml version="1.0" encoding="UTF-8"?>
<svg xmlns="http://www.w3.org/2000/svg" xmlns:xlink="http://www.w3.org/1999/xlink" width="1179px" height="300px" viewBox="0 0 1179 300" version="1.1">
<defs>
<clipPath id="clip1">
  <path d="M 32 31 L 264 31 L 264 269 L 32 269 Z M 32 31 "/>
</clipPath>
<clipPath id="clip2">
  <path d="M 82.691406 185.589844 C 75.070312 185.589844 68.609375 184.75 64.144531 182.667969 C 57.050781 179.429688 51.585938 172.804688 51.585938 162.269531 C 51.585938 153.351562 54.128906 145.128906 57.203125 134.679688 L 79.820312 55.4375 C 51.09375 77.054688 32.523438 111.398438 32.523438 150.105469 C 32.523438 215.484375 85.492188 268.464844 150.859375 268.464844 C 203.878906 268.464844 248.730469 233.621094 263.800781 185.589844 Z M 150.859375 31.761719 C 136.511719 31.761719 122.757812 34.308594 110.03125 38.972656 L 90.636719 108.058594 L 261.523438 108.058594 C 244.539062 63.457031 201.402344 31.761719 150.859375 31.761719 "/>
</clipPath>
</defs>
<g id="surface1">
<path style=" stroke:none;fill-rule:nonzero;fill:rgb(92.941176%,10.588235%,17.647059%);fill-opacity:1;" d="M 1133.671875 284.285156 L 1138.855469 284.285156 L 1141.949219 295.519531 L 1145.316406 284.285156 L 1150.332031 284.285156 L 1150.332031 299.628906 L 1147.191406 299.628906 L 1147.191406 286.464844 L 1143.179688 299.628906 L 1140.550781 299.628906 L 1136.601562 286.464844 L 1136.601562 299.628906 L 1133.671875 299.628906 Z M 1123.707031 286.839844 L 1118.316406 286.839844 L 1118.316406 284.285156 L 1132.296875 284.285156 L 1132.296875 286.839844 L 1126.953125 286.839844 L 1126.953125 299.628906 L 1123.707031 299.628906 Z M 1123.707031 286.839844 "/>
<path style=" stroke:none;fill-rule:nonzero;fill:rgb(0%,60.392157%,30.588235%);fill-opacity:1;" d="M 1179 0.0429688 L 208.480469 0.0429688 C 174.550781 0.0429688 157.277344 0.390625 138.390625 2.714844 C 95.867188 7.640625 58.320312 25.984375 35.328125 53.082031 C 12.308594 80.539062 0 114.035156 0 149.863281 C 0 190.507812 16.050781 228.632812 45.300781 257.171875 C 67.09375 278.457031 95.125 291.378906 130.929688 296.730469 C 154.839844 300.3125 178.75 300.085938 199.933594 299.828125 L 214.644531 299.710938 L 1098.871094 299.710938 Z M 1179 0.0429688 "/>
<path style=" stroke:none;fill-rule:nonzero;fill:rgb(100%,100%,100%);fill-opacity:1;" d="M 1093.710938 293.082031 L 214.644531 293.082031 C 156.335938 293.082031 95.652344 296.890625 50.007812 252.371094 C 23.210938 226.144531 6.726562 189.984375 6.726562 149.863281 C 6.726562 114.8125 19.359375 82.125 40.234375 57.347656 C 64.167969 29.089844 101.851562 13.746094 139.191406 9.332031 C 158.402344 6.960938 176.304688 6.679688 208.476562 6.679688 L 1170.203125 6.679688 Z M 1093.710938 293.082031 "/>
<path style=" stroke:none;fill-rule:nonzero;fill:rgb(92.941176%,10.588235%,17.647059%);fill-opacity:1;" d="M 935.523438 111.179688 C 930.828125 111.179688 927.65625 113.242188 924.359375 116.492188 C 913.117188 127.535156 900.179688 161.175781 893.804688 187.195312 C 890.875 199.671875 889.480469 206.6875 889.480469 214.03125 C 889.480469 220.984375 892.652344 224.902344 898.101562 224.902344 C 902.375 224.902344 906.992188 221.929688 910.222656 218.488281 C 916.078125 212.417969 920.121094 203.554688 924.71875 192.5625 C 935.675781 166.625 943.511719 132.867188 943.511719 121.816406 C 943.511719 116.441406 941.859375 111.179688 935.523438 111.179688 M 975.285156 183.046875 C 961.488281 221.609375 938.773438 252.808594 894.089844 252.808594 C 863.152344 252.808594 845.53125 237.789062 845.53125 205.953125 C 845.53125 191.878906 849.027344 176.878906 853.453125 163.578125 C 866.070312 126.535156 893.488281 83.183594 937.277344 83.183594 C 970.035156 83.183594 985.875 99.738281 985.875 132.109375 C 985.875 147.71875 980.644531 168.296875 975.285156 183.046875 M 470.480469 206.878906 C 470.480469 216.878906 475.210938 224.84375 486.078125 224.84375 C 490.183594 224.84375 494.03125 224.84375 498.160156 223.949219 L 512.601562 171.210938 C 492.570312 173.621094 470.480469 183.335938 470.480469 206.878906 M 562.617188 146.199219 L 535.277344 245.46875 C 516.128906 250.453125 496.390625 253.355469 476.34375 253.355469 C 451.074219 253.355469 426.027344 241.042969 426.027344 212.472656 C 426.027344 162.738281 479.601562 148.59375 519.652344 144.789062 C 521.738281 138.289062 523.757812 131.535156 523.757812 124.746094 C 523.757812 113.605469 514.042969 110.890625 504.621094 110.890625 C 491.417969 110.890625 473.425781 114.472656 460.8125 118.546875 L 467.867188 91.441406 C 481.378906 85.570312 501.984375 82.949219 516.738281 82.949219 C 540.859375 82.949219 566.773438 90.640625 566.773438 119.449219 C 566.773438 128.535156 565.019531 137.402344 562.617188 146.199219 M 882.363281 87.574219 C 875.71875 83.976562 864.402344 83.183594 855.164062 83.183594 C 836.675781 83.183594 814.84375 86.464844 798.128906 95.035156 L 755.414062 248.972656 L 798.429688 248.972656 L 835.074219 115.003906 C 841.484375 112.691406 847.835938 111.78125 854.597656 111.78125 C 860.152344 111.78125 863.273438 112.058594 865.769531 112.191406 Z M 445.558594 80.101562 C 445.558594 50.9375 425.835938 40.644531 399.339844 40.644531 C 372.566406 40.644531 349.914062 52.964844 332.855469 73.292969 C 308.972656 101.832031 289.222656 162.269531 289.222656 199.015625 C 289.222656 237.585938 305.148438 256.171875 344.265625 256.171875 C 398.804688 256.171875 412 211.953125 424.675781 168.085938 L 377.582031 176.945312 C 373.777344 189.273438 364.328125 224.933594 347.804688 224.933594 C 337.824219 224.933594 335.761719 215.554688 335.761719 207.3125 C 335.761719 182.5625 350.507812 135.433594 359.339844 111.902344 C 364.046875 99.503906 376.121094 70.929688 392.589844 70.929688 C 396.367188 70.929688 399.015625 72.96875 400.167969 74.929688 C 401.675781 77.214844 402.101562 79.871094 402.101562 83.152344 C 402.101562 84.453125 401.777344 88.324219 401.160156 91.113281 C 400.015625 96.957031 391.429688 128.042969 391.429688 128.042969 L 436.738281 120.128906 C 440.234375 107.960938 445.558594 92.691406 445.558594 80.101562 M 682.085938 87.617188 C 671.160156 84.402344 659.160156 82.949219 647.902344 82.949219 C 614.6875 82.949219 579.484375 100.863281 579.183594 138.285156 C 578.890625 172.160156 620.042969 183.589844 619.835938 202.78125 C 619.652344 218.398438 605.804688 224.28125 592.292969 224.28125 C 581.375 224.28125 569.777344 222.804688 559.21875 219.859375 L 551.714844 245.761719 C 565.527344 250.195312 582.320312 252.222656 596.675781 252.222656 C 630.273438 252.222656 661.328125 233.097656 661.6875 196.601562 C 662.03125 160.640625 623.214844 152.746094 623.347656 132.109375 C 623.480469 116.140625 639.445312 111.507812 652.734375 111.507812 C 659.734375 111.507812 667.398438 112.058594 674.480469 113.601562 Z M 783.546875 88.558594 L 752.078125 88.558594 L 764.34375 43.148438 L 719.058594 50.5625 L 709.113281 88.558594 L 693.464844 88.558594 L 686.394531 113.601562 L 702.027344 113.601562 C 702.027344 113.601562 677.847656 201.585938 676.105469 208.90625 C 674.9375 213.664062 673.742188 219.535156 673.742188 224.28125 C 673.742188 236.054688 681.429688 244.570312 691.386719 247.238281 C 695.15625 248.421875 701.675781 248.976562 709.113281 248.976562 L 740.316406 248.976562 L 747.328125 223.671875 L 731.46875 223.671875 C 724.417969 223.671875 717.925781 223.054688 717.925781 214.824219 C 717.925781 212.773438 718.519531 210.382812 719.058594 207.496094 C 719.9375 203.929688 745 113.601562 745 113.601562 L 776.421875 113.601562 Z M 1030.878906 202.472656 C 1029.925781 206.601562 1029.359375 210.167969 1029.359375 213.0625 C 1029.359375 221.886719 1036.136719 223.671875 1043.503906 223.671875 L 1058.261719 223.671875 L 1052.320312 248.976562 L 1022.898438 248.976562 C 1013.695312 248.976562 1006.382812 248.066406 1001.960938 246.347656 C 991.988281 242.203125 985.507812 233.367188 985.507812 220.117188 C 985.507812 214.207031 986.6875 208.082031 988.128906 201.90625 C 989.917969 194.234375 1029.609375 51.730469 1029.609375 51.730469 L 1074.710938 43.148438 C 1074.710938 43.148438 1032.320312 195.949219 1030.878906 202.472656 "/>
<path style=" stroke:none;fill-rule:nonzero;fill:rgb(97.647059%,69.803922%,61.568627%);fill-opacity:1;" d="M 113.496094 158.046875 C 112.757812 158.046875 112.050781 157.757812 111.53125 157.238281 C 111.011719 156.71875 110.722656 156.011719 110.722656 155.273438 C 110.722656 153.722656 111.917969 152.476562 113.496094 152.476562 L 121.015625 152.476562 C 122.484375 152.476562 123.808594 153.722656 123.808594 155.273438 C 123.808594 156.777344 122.484375 158.046875 121.015625 158.046875 Z M 105.242188 148.820312 C 104.191406 148.820312 103.339844 147.972656 103.328125 146.925781 C 103.328125 145.832031 104.191406 145.003906 105.242188 145.003906 L 110.003906 145.003906 C 111.023438 145.003906 111.882812 145.832031 111.882812 146.925781 C 111.886719 147.964844 111.046875 148.8125 110.003906 148.820312 Z M 104.949219 165.675781 L 100.300781 165.675781 C 99.207031 165.675781 98.421875 164.773438 98.421875 163.730469 C 98.421875 162.683594 99.265625 161.824219 100.300781 161.824219 L 104.949219 161.824219 C 106 161.824219 106.875 162.6875 106.875 163.730469 C 106.875 164.769531 106.042969 165.675781 104.949219 165.675781 M 95.542969 157.144531 L 90.910156 157.144531 C 89.851562 157.144531 89.015625 156.25 89.015625 155.238281 C 89.015625 154.164062 89.851562 153.296875 90.910156 153.296875 L 95.542969 153.296875 C 96.644531 153.296875 97.46875 154.164062 97.46875 155.238281 C 97.46875 156.25 96.644531 157.144531 95.542969 157.144531 M 86.621094 148.820312 L 81.9375 148.820312 C 81.433594 148.824219 80.945312 148.628906 80.582031 148.273438 C 80.222656 147.917969 80.019531 147.433594 80.019531 146.925781 C 80.019531 145.832031 80.851562 145.003906 81.9375 145.003906 L 86.621094 145.003906 C 87.6875 145.003906 88.574219 145.832031 88.574219 146.925781 C 88.574219 147.960938 87.6875 148.820312 86.621094 148.820312 M 81.636719 165.675781 L 76.964844 165.675781 C 75.914062 165.675781 74.972656 164.773438 74.972656 163.730469 C 74.972656 162.683594 75.914062 161.824219 76.964844 161.824219 L 81.636719 161.824219 C 82.691406 161.824219 83.515625 162.6875 83.515625 163.730469 C 83.515625 164.769531 82.691406 165.675781 81.636719 165.675781 M 86.953125 128.128906 L 91.605469 128.128906 C 92.671875 128.128906 93.566406 128.988281 93.566406 130.0625 C 93.566406 131.125 92.722656 132 91.605469 132 L 86.953125 132 C 85.855469 132 85.019531 131.125 85.019531 130.0625 C 85.019531 128.988281 85.851562 128.128906 86.953125 128.128906 M 95.976562 136.417969 L 100.691406 136.417969 C 101.742188 136.417969 102.644531 137.277344 102.644531 138.351562 C 102.644531 139.4375 101.742188 140.273438 100.691406 140.273438 L 95.976562 140.273438 C 94.890625 140.273438 94 139.4375 94 138.351562 C 94 137.277344 94.890625 136.417969 95.976562 136.417969 M 110.289062 128.128906 L 114.964844 128.128906 C 116.015625 128.128906 116.898438 128.988281 116.898438 130.0625 C 116.898438 131.125 116.015625 132 114.964844 132 L 110.289062 132 C 109.207031 132 108.296875 131.125 108.296875 130.0625 C 108.292969 128.988281 109.207031 128.128906 110.289062 128.128906 M 125.921875 135.546875 C 127.492188 135.546875 128.726562 136.816406 128.726562 138.328125 C 128.726562 139.855469 127.492188 141.066406 125.921875 141.066406 L 118.417969 141.066406 C 116.898438 141.066406 115.582031 139.855469 115.582031 138.328125 C 115.582031 136.816406 116.898438 135.546875 118.417969 135.546875 Z M 125.921875 135.546875 "/>
<path style=" stroke:none;fill-rule:nonzero;fill:rgb(92.941176%,10.588235%,17.647059%);fill-opacity:1;" d="M 95.976562 140.273438 L 100.691406 140.273438 C 101.742188 140.273438 102.644531 139.4375 102.644531 138.351562 C 102.644531 137.273438 101.742188 136.414062 100.691406 136.414062 L 95.976562 136.414062 C 94.890625 136.414062 94 137.273438 94 138.351562 C 94 139.4375 94.890625 140.273438 95.976562 140.273438 M 110.289062 132 L 114.964844 132 C 116.015625 132 116.898438 131.125 116.898438 130.0625 C 116.898438 128.984375 116.015625 128.125 114.964844 128.125 L 110.289062 128.125 C 109.203125 128.125 108.296875 128.984375 108.296875 130.0625 C 108.292969 131.125 109.203125 132 110.289062 132 M 144.199219 125.914062 L 136.363281 125.914062 C 134.023438 125.914062 132.136719 127.71875 132.136719 130.0625 C 132.144531 132.394531 134.035156 134.277344 136.363281 134.269531 L 142.1875 134.269531 L 144.707031 125.914062 Z M 115.582031 138.328125 C 115.582031 139.855469 116.898438 141.066406 118.417969 141.066406 L 125.921875 141.066406 C 127.488281 141.066406 128.726562 139.855469 128.726562 138.328125 C 128.726562 136.816406 127.492188 135.546875 125.921875 135.546875 L 118.417969 135.546875 C 116.898438 135.546875 115.582031 136.816406 115.582031 138.328125 M 122.140625 163.644531 C 122.140625 165.949219 124.0625 167.828125 126.324219 167.828125 L 132.296875 167.828125 L 134.757812 159.464844 L 126.324219 159.464844 C 124.058594 159.464844 122.140625 161.308594 122.140625 163.644531 "/>
<path style=" stroke:none;fill-rule:nonzero;fill:rgb(92.941176%,10.588235%,18.431373%);fill-opacity:1;" d="M 137.1875 151.15625 L 137.195312 151.15625 L 137.222656 151.117188 L 137.195312 151.117188 Z M 137.1875 151.15625 "/>
<path style=" stroke:none;fill-rule:nonzero;fill:rgb(92.941176%,10.588235%,17.647059%);fill-opacity:1;" d="M 127.332031 146.851562 C 127.332031 149.179688 129.21875 151.15625 131.496094 151.15625 L 137.1875 151.15625 L 137.195312 151.117188 L 137.222656 151.117188 L 139.757812 142.570312 L 131.496094 142.570312 C 129.21875 142.570312 127.332031 144.546875 127.332031 146.851562 M 104.949219 161.824219 L 100.300781 161.824219 C 99.265625 161.824219 98.421875 162.6875 98.421875 163.730469 C 98.421875 164.769531 99.207031 165.675781 100.300781 165.675781 L 104.949219 165.675781 C 106.042969 165.675781 106.875 164.773438 106.875 163.730469 C 106.875 162.683594 106 161.824219 104.949219 161.824219 M 111.882812 146.925781 C 111.882812 145.832031 111.023438 145.003906 110.003906 145.003906 L 105.242188 145.003906 C 104.1875 145.003906 103.328125 145.832031 103.328125 146.925781 C 103.328125 147.960938 104.1875 148.820312 105.242188 148.820312 L 110.003906 148.820312 C 111.050781 148.820312 111.882812 147.960938 111.882812 146.925781 M 123.808594 155.273438 C 123.808594 153.71875 122.484375 152.476562 121.015625 152.476562 L 113.492188 152.476562 C 111.914062 152.476562 110.722656 153.71875 110.722656 155.273438 C 110.71875 156.007812 111.011719 156.714844 111.53125 157.234375 C 112.050781 157.757812 112.757812 158.046875 113.492188 158.042969 L 121.015625 158.042969 C 122.484375 158.046875 123.808594 156.777344 123.808594 155.273438 M 86.953125 132 L 91.605469 132 C 92.722656 132 93.566406 131.125 93.566406 130.0625 C 93.566406 128.984375 92.671875 128.125 91.605469 128.125 L 86.953125 128.125 C 85.855469 128.125 85.019531 128.984375 85.019531 130.0625 C 85.019531 131.125 85.851562 132 86.953125 132 "/>
<path style=" stroke:none;fill-rule:nonzero;fill:rgb(92.941176%,10.588235%,17.647059%);fill-opacity:1;" d="M 205.773438 132.710938 L 200.5 132.710938 C 199.230469 132.710938 198.199219 131.683594 198.195312 130.414062 C 198.195312 129.144531 199.246094 128.117188 200.5 128.117188 L 205.773438 128.117188 C 207.015625 128.117188 207.996094 129.144531 207.996094 130.414062 C 207.996094 131.699219 207.015625 132.710938 205.773438 132.710938 M 200.816406 149.097656 L 195.527344 149.097656 C 194.347656 149.097656 193.265625 148.152344 193.265625 146.851562 C 193.265625 145.566406 194.351562 144.546875 195.527344 144.546875 L 200.816406 144.546875 C 202.101562 144.546875 203.128906 145.566406 203.128906 146.851562 C 203.128906 148.152344 202.101562 149.097656 200.816406 149.097656 M 195.875 165.675781 L 190.660156 165.675781 C 190.039062 165.675781 189.445312 165.433594 189.007812 164.996094 C 188.574219 164.558594 188.328125 163.964844 188.332031 163.34375 C 188.332031 162.082031 189.324219 161.066406 190.660156 161.066406 L 195.875 161.066406 C 197.1875 161.066406 198.195312 162.082031 198.195312 163.34375 C 198.195312 164.628906 197.160156 165.671875 195.875 165.675781 M 185.183594 157.570312 L 179.945312 157.570312 C 178.679688 157.558594 177.65625 156.539062 177.648438 155.273438 C 177.648438 153.9375 178.699219 152.960938 179.945312 152.960938 L 185.183594 152.960938 C 186.445312 152.960938 187.472656 153.9375 187.472656 155.273438 C 187.472656 156.542969 186.445312 157.570312 185.183594 157.570312 M 174.503906 149.097656 L 169.253906 149.097656 C 167.949219 149.097656 166.957031 148.152344 166.957031 146.851562 C 166.957031 145.566406 167.949219 144.546875 169.253906 144.546875 L 174.503906 144.546875 C 175.753906 144.546875 176.804688 145.566406 176.804688 146.851562 C 176.804688 148.152344 175.753906 149.097656 174.503906 149.097656 M 169.535156 165.675781 L 164.335938 165.675781 C 163.042969 165.675781 161.984375 164.597656 161.984375 163.34375 C 161.984375 162.082031 163.042969 161.066406 164.335938 161.066406 L 169.535156 161.066406 C 170.820312 161.066406 171.890625 162.082031 171.890625 163.34375 C 171.890625 164.597656 170.820312 165.675781 169.535156 165.675781 M 151.710938 158.34375 C 149.929688 158.34375 148.503906 156.96875 148.503906 155.273438 C 148.507812 153.507812 149.941406 152.074219 151.710938 152.078125 L 160.261719 152.078125 C 161.984375 152.078125 163.433594 153.519531 163.433594 155.273438 C 163.433594 156.96875 161.984375 158.34375 160.261719 158.34375 Z M 156.632812 135.179688 L 165.246094 135.179688 C 166.957031 135.179688 168.351562 136.640625 168.351562 138.328125 C 168.351562 140.089844 166.957031 141.515625 165.246094 141.515625 L 156.632812 141.515625 C 154.839844 141.515625 153.460938 140.089844 153.460938 138.328125 C 153.472656 136.585938 154.890625 135.175781 156.632812 135.179688 M 174.1875 128.117188 L 179.417969 128.117188 C 180.695312 128.117188 181.730469 129.144531 181.730469 130.414062 C 181.730469 131.699219 180.695312 132.710938 179.417969 132.710938 L 174.1875 132.710938 C 172.921875 132.703125 171.894531 131.679688 171.890625 130.414062 C 171.890625 129.144531 172.949219 128.117188 174.1875 128.117188 M 184.882812 136.066406 L 190.09375 136.066406 C 190.699219 136.054688 191.285156 136.289062 191.714844 136.714844 C 192.148438 137.140625 192.394531 137.71875 192.394531 138.328125 C 192.394531 139.628906 191.402344 140.671875 190.09375 140.671875 L 184.882812 140.671875 C 183.632812 140.671875 182.589844 139.628906 182.589844 138.328125 C 182.589844 137.101562 183.632812 136.066406 184.882812 136.066406 M 266.714844 125.914062 L 151.710938 125.914062 C 153.566406 126.441406 154.84375 128.136719 154.839844 130.0625 C 154.839844 132.386719 153.003906 134.269531 150.691406 134.269531 L 142.1875 134.269531 L 139.691406 142.570312 L 145.867188 142.570312 C 148.148438 142.570312 150.03125 144.53125 150.03125 146.902344 C 150.03125 149.1875 148.144531 151.117188 145.867188 151.117188 L 137.222656 151.117188 L 137.199219 151.15625 L 137.191406 151.15625 L 134.761719 159.464844 L 140.644531 159.464844 C 142.933594 159.464844 144.800781 161.308594 144.800781 163.644531 C 144.800781 165.707031 143.289062 167.445312 141.238281 167.878906 L 267.894531 167.878906 C 268.777344 161.996094 269.21875 156.054688 269.222656 150.105469 C 269.210938 141.976562 268.375 133.871094 266.714844 125.914062 M 81.636719 161.824219 L 76.964844 161.824219 C 75.914062 161.824219 74.96875 162.6875 74.96875 163.730469 C 74.96875 164.769531 75.914062 165.675781 76.964844 165.675781 L 81.636719 165.675781 C 82.691406 165.675781 83.515625 164.773438 83.515625 163.730469 C 83.515625 162.683594 82.6875 161.824219 81.636719 161.824219 M 95.542969 153.296875 L 90.910156 153.296875 C 89.851562 153.296875 89.015625 154.164062 89.015625 155.238281 C 89.015625 156.25 89.851562 157.144531 90.910156 157.144531 L 95.542969 157.144531 C 96.644531 157.144531 97.46875 156.25 97.46875 155.238281 C 97.46875 154.164062 96.644531 153.296875 95.542969 153.296875 M 86.621094 145.003906 L 81.9375 145.003906 C 80.851562 145.003906 80.019531 145.832031 80.019531 146.925781 C 80.019531 147.960938 80.851562 148.820312 81.9375 148.820312 L 86.621094 148.820312 C 87.6875 148.820312 88.574219 147.960938 88.574219 146.925781 C 88.574219 145.832031 87.6875 145.003906 86.621094 145.003906 "/>
<g clip-path="url(#clip1)" clip-rule="nonzero">
<g clip-path="url(#clip2)" clip-rule="nonzero">
<path style=" stroke:none;fill-rule:nonzero;fill:rgb(0%,60.392157%,30.588235%);fill-opacity:1;" d="M 269.121094 150.164062 C 269.121094 215.550781 216.140625 268.550781 150.765625 268.550781 C 85.410156 268.550781 32.4375 215.550781 32.4375 150.164062 C 32.4375 84.820312 85.410156 31.796875 150.765625 31.796875 C 216.140625 31.796875 269.121094 84.820312 269.121094 150.164062 "/>
</g>
</g>
</g>
</svg>
